<?xml version="1.0" standalone="no"?>
<!DOCTYPE svg PUBLIC "-//W3C//DTD SVG 20010904//EN"
 "http://www.w3.org/TR/2001/REC-SVG-20010904/DTD/svg10.dtd">
<svg version="1.0" xmlns="http://www.w3.org/2000/svg"
 width="609.000000pt" height="410.000000pt" viewBox="0 0 609.000000 410.000000"
 preserveAspectRatio="xMidYMid meet">
<metadata>
Created by potrace 1.16, written by Peter Selinger 2001-2019
</metadata>
<g transform="translate(0.000000,410.000000) scale(0.100000,-0.100000)"
fill="#000000" stroke="none">
<path d="M1106 2701 c-3 -5 -21 -12 -40 -15 -19 -4 -39 -13 -46 -21 -7 -8 -19
-15 -26 -15 -8 0 -14 -4 -14 -8 0 -5 -16 -25 -35 -45 -36 -37 -44 -57 -24 -57
7 0 9 -10 7 -24 -4 -20 0 -25 24 -28 15 -3 29 -2 29 1 1 3 3 23 4 44 3 48 19
66 43 49 9 -7 26 -16 37 -21 11 -5 35 -24 54 -41 32 -30 33 -33 16 -42 -10 -6
-45 -8 -79 -5 -34 3 -56 3 -49 1 7 -3 9 -12 6 -20 -6 -17 42 -20 52 -3 5 7 15
5 31 -5 33 -23 53 -20 66 9 22 49 43 25 29 -35 -10 -46 -19 -59 -29 -45 -4 6
-15 16 -24 23 -15 12 -20 12 -34 -2 -11 -12 -25 -15 -49 -10 -41 7 -51 -14
-34 -79 8 -33 8 -50 0 -65 -6 -12 -11 -22 -11 -24 0 -10 129 0 148 11 13 7 30
10 38 7 15 -6 16 -2 18 64 1 25 -3 48 -9 52 -6 5 -5 8 3 8 6 0 12 9 12 19 0
11 5 23 10 26 6 3 10 14 10 24 0 10 11 24 25 31 14 7 25 22 25 32 0 37 -25
108 -38 108 -9 0 -11 7 -6 22 6 20 5 21 -10 9 -9 -7 -16 -10 -16 -5 -1 31
-101 97 -114 75z"/>
<path d="M5004 2680 c-11 -4 -33 -23 -48 -40 -27 -33 -28 -50 -17 -184 1 -5 4
-6 8 -2 4 4 13 -10 20 -31 l12 -38 -5 35 c-6 43 13 102 26 80 7 -11 12 -11 32
2 13 8 39 19 58 23 19 4 45 13 58 21 25 16 27 13 11 -19 -10 -21 -9 -21 10 2
21 23 26 57 15 98 -11 41 -125 75 -180 53z"/>
<path d="M3716 2598 c-35 -48 -55 -103 -65 -188 -5 -41 -17 -98 -27 -126 -17
-47 -23 -53 -67 -69 -47 -17 -47 -17 -41 -54 4 -20 15 -53 25 -73 11 -21 19
-46 19 -57 0 -11 5 -23 10 -26 6 -4 7 -13 1 -23 -6 -11 -6 -24 0 -35 6 -9 7
-22 4 -27 -16 -27 17 -5 51 33 21 23 50 47 65 54 15 6 35 26 45 45 9 18 21 36
26 39 5 3 12 35 16 70 7 61 8 64 32 61 14 -2 29 -8 35 -13 5 -5 20 -9 32 -9
13 0 33 -9 45 -20 12 -10 25 -17 30 -14 4 3 8 0 8 -5 0 -6 -7 -11 -15 -11 -8
0 -15 4 -15 9 0 5 -7 11 -15 15 -11 4 -15 -2 -15 -24 0 -20 6 -31 20 -35 12
-4 31 -23 44 -43 13 -21 34 -43 48 -50 13 -8 30 -29 37 -49 13 -34 20 -38 25
-11 15 77 20 94 30 100 8 6 8 8 -1 8 -8 0 -5 17 8 56 21 58 19 74 -9 75 -9 0
-33 5 -52 12 -33 12 -35 15 -46 82 -23 136 -85 277 -138 313 -22 15 -47 22
-79 22 -40 0 -49 -4 -71 -32z m125 -65 c50 -30 48 -72 -3 -73 -23 0 -23 -29
-2 -37 9 -3 25 -1 34 5 34 21 40 -15 13 -75 -36 -81 -76 -96 -113 -44 l-20 30
35 3 c35 3 49 18 24 27 -7 2 -9 -1 -5 -8 5 -7 -1 -11 -14 -11 -15 0 -20 5 -17
13 4 10 -2 13 -18 9 -20 -3 -25 1 -31 24 -5 18 -3 29 4 32 7 2 10 7 7 12 -3 4
5 6 17 2 21 -5 21 -6 2 -13 -18 -6 -18 -7 -1 -14 12 -5 22 -1 32 11 18 25 10
34 -30 34 -19 0 -37 5 -40 10 -11 18 5 50 33 65 36 19 58 19 93 -2z"/>
<path d="M2423 2560 c-34 -14 -79 -68 -115 -138 -18 -35 -39 -68 -45 -74 -7
-6 -13 -17 -13 -26 0 -8 -8 -24 -17 -35 -16 -18 -16 -20 -2 -14 13 4 16 1 12
-14 -3 -10 -13 -19 -22 -19 -9 0 -33 -15 -53 -34 -41 -37 -60 -86 -84 -216
-40 -227 -39 -209 -20 -245 22 -40 42 -47 86 -29 l33 14 -6 -47 c-17 -135 -30
-332 -23 -365 8 -44 50 -98 64 -83 5 6 15 32 21 60 14 56 33 78 75 89 19 4 26
12 22 21 -4 10 7 18 35 25 22 6 37 15 34 20 -4 6 3 10 13 10 20 0 32 -25 32
-69 0 -14 -5 -21 -12 -19 -7 3 -31 -1 -53 -8 l-40 -13 50 1 c37 2 51 -1 53
-13 2 -11 -6 -14 -39 -11 -29 3 -40 1 -35 -7 4 -6 18 -11 30 -11 20 0 24 -5
24 -37 1 -143 3 -167 11 -154 17 27 23 -27 11 -106 -16 -109 -27 -146 -49
-169 -10 -11 -22 -30 -25 -42 -4 -12 -12 -22 -17 -22 -6 0 -7 -5 -3 -12 4 -7
3 -8 -4 -4 -13 8 -44 -6 -44 -19 0 -4 6 -12 14 -16 7 -5 8 -9 2 -9 -10 0 -20
-47 -28 -134 -1 -16 3 -30 11 -33 10 -4 11 -9 2 -19 -13 -16 -4 -34 19 -34 13
0 14 2 3 9 -9 6 -4 10 19 13 l31 5 -28 -24 c-19 -15 -37 -22 -56 -20 l-29 4 6
-51 c5 -39 3 -60 -11 -86 -26 -52 -30 -146 -8 -170 37 -41 120 -17 137 40 3 8
8 -9 11 -39 4 -29 8 -56 11 -58 9 -9 86 -15 111 -9 23 6 26 11 21 34 -3 15
-10 81 -16 146 -8 93 -7 122 3 128 12 8 -31 13 -81 10 l-23 -1 22 17 21 18
-21 0 c-12 0 -21 -4 -21 -8 0 -22 -18 -4 -22 21 -3 23 -1 28 13 26 13 -3 18 7
23 43 3 26 10 70 15 97 9 44 9 41 5 -29 -3 -43 -8 -93 -11 -110 -6 -27 -4 -29
9 -19 9 8 13 24 10 43 -3 23 0 30 12 30 9 0 16 5 16 11 0 6 -7 8 -17 5 -15 -6
-15 -5 1 13 12 13 18 36 18 68 1 26 6 52 12 56 8 6 7 10 -1 14 -7 2 -13 9 -13
14 0 15 44 10 68 -7 12 -8 22 -12 22 -7 0 4 -22 22 -48 38 -46 29 -70 75 -40
75 8 1 7 6 -5 15 -16 12 -18 22 -12 77 7 63 9 173 5 258 -4 89 0 116 20 138
24 26 15 30 -12 5 -20 -18 -25 -5 -5 16 10 11 9 13 -5 8 -18 -6 -32 30 -22 57
7 18 31 10 37 -12 4 -15 5 -15 6 -1 2 25 42 42 73 30 29 -11 48 -69 48 -149 0
-30 5 -54 14 -61 11 -9 12 -20 4 -47 -16 -59 -2 -49 23 16 19 49 31 64 58 77
l33 16 -7 71 c-3 39 -17 103 -30 141 -12 39 -25 90 -28 115 -5 40 -3 47 16 55
12 6 30 26 40 46 15 32 16 48 6 162 -10 119 -9 174 5 196 3 5 2 20 -3 33 -5
12 -9 27 -9 31 0 5 -14 20 -31 34 -17 14 -31 31 -31 36 0 6 -6 18 -13 26 -15
19 -33 71 -43 124 -3 20 -10 40 -16 43 -5 3 -22 34 -38 69 -16 35 -40 71 -53
79 -31 21 -77 28 -104 16z m50 -117 c8 -10 17 -29 19 -43 2 -19 -3 -28 -25
-37 -35 -15 -27 -33 14 -33 31 0 38 -24 8 -26 -44 -1 -82 -34 -41 -34 15 -1
15 -2 -2 -15 -20 -15 -20 -15 0 -15 11 0 25 5 32 12 9 9 9 5 0 -15 -18 -39
-62 -37 -83 3 -19 36 -19 41 -1 34 11 -4 13 0 9 15 -3 13 -12 20 -22 19 -13
-2 -17 7 -19 49 -3 45 0 54 25 77 32 30 63 33 86 9z m-13 -283 c0 -5 16 -10
35 -10 25 0 35 -4 35 -16 0 -8 -4 -13 -9 -9 -5 3 -12 1 -16 -5 -3 -6 3 -10 16
-10 21 0 22 -2 16 -80 -4 -51 -2 -89 5 -105 9 -19 7 -29 -6 -50 -16 -24 -22
-26 -62 -20 -72 9 -85 19 -34 26 l45 6 -42 1 c-30 2 -43 6 -43 16 0 11 -10 13
-42 9 -58 -8 -61 -13 -8 -13 51 0 50 -6 -2 -13 -51 -7 -67 13 -64 78 6 102 53
205 80 177 4 -3 4 1 0 11 -5 15 1 17 45 17 28 0 51 -4 51 -10z m0 -346 c0 -12
16 -42 36 -66 45 -53 95 -160 94 -202 0 -17 2 -46 6 -65 6 -31 5 -33 -17 -25
-13 4 -41 8 -61 9 -21 0 -40 4 -44 8 -4 4 -47 7 -96 7 -48 0 -88 4 -88 9 0 26
21 61 37 62 17 1 17 2 1 6 -22 6 -22 19 1 107 12 44 24 72 35 76 15 5 15 8 2
25 -16 21 -21 55 -8 55 13 -1 42 -27 42 -39 0 -7 8 -11 18 -9 12 2 16 11 14
34 -2 22 1 31 12 31 10 0 16 -9 16 -23z"/>
<path d="M5117 2403 c-13 -14 -21 -14 -42 -5 -21 10 -28 9 -43 -6 -9 -9 -24
-17 -32 -17 -41 1 -50 -76 -14 -116 10 -11 14 -25 10 -35 -8 -21 -20 -10 -35
35 -14 44 -14 84 1 99 9 9 8 12 -4 12 -9 0 -19 -4 -22 -9 -3 -4 -26 -14 -51
-21 -50 -14 -63 -26 -74 -67 -4 -16 -16 -30 -26 -32 -51 -9 -73 -70 -84 -228
-13 -199 5 -284 65 -299 32 -8 38 -39 28 -132 -14 -134 -11 -253 7 -262 23
-13 37 -70 55 -225 13 -116 13 -153 3 -216 -17 -105 2 -352 31 -406 11 -20 16
-41 11 -47 -4 -6 -8 -62 -9 -124 -1 -110 -1 -113 23 -122 13 -5 47 -7 76 -5
43 3 54 7 61 25 4 12 6 25 3 30 -3 4 -7 32 -9 61 -6 79 -17 129 -28 129 -6 0
-5 6 2 15 6 8 9 23 5 34 -3 11 -7 102 -8 203 -2 178 -1 184 21 214 20 26 22
35 13 52 -8 15 -8 42 0 99 13 88 25 122 27 73 0 -17 5 -37 10 -43 18 -22 33
-285 20 -356 -4 -25 -10 -99 -13 -165 -3 -67 -8 -139 -12 -161 -10 -59 -5 -88
20 -110 13 -11 35 -37 50 -57 32 -43 60 -55 93 -38 18 10 27 10 37 2 8 -7 17
-9 20 -5 12 11 8 63 -4 63 -15 0 -33 23 -63 81 -21 41 -23 54 -16 105 5 33 13
77 18 99 18 71 33 169 37 236 2 35 7 72 11 82 3 10 2 23 -5 30 -15 15 -14 82
3 139 13 41 34 249 28 272 -2 5 0 22 3 37 6 24 12 29 37 29 l30 0 -8 68 c-3
37 -11 77 -15 90 -5 13 -9 42 -9 65 0 23 -9 66 -20 95 -27 71 -27 86 3 71 12
-7 25 -17 29 -22 8 -13 65 43 78 78 10 27 5 106 -9 135 -4 8 -9 38 -10 65 -3
79 -20 172 -37 208 -16 33 -49 55 -109 73 -22 7 -31 16 -33 36 -2 20 -12 30
-43 42 -21 9 -39 21 -39 27 0 6 -6 17 -14 24 -11 11 -16 11 -29 -2z m-85 -137
c10 -25 14 -28 45 -23 24 4 36 2 40 -9 3 -7 14 -14 24 -14 10 0 16 5 14 13 -6
16 12 44 22 34 4 -5 0 -22 -9 -38 -14 -24 -15 -34 -6 -48 10 -16 14 -17 25 -6
7 8 10 21 7 29 -3 9 -1 16 5 16 6 0 11 -9 11 -19 0 -11 7 -27 16 -35 14 -15
10 -16 -40 -16 -58 0 -60 -1 -70 -41 -5 -21 -2 -28 14 -32 11 -3 22 -1 25 4 3
4 12 6 20 2 25 -9 65 6 65 25 1 13 4 11 15 -8 8 -14 14 -50 15 -81 0 -44 -4
-60 -20 -74 -16 -14 -23 -16 -32 -7 -19 19 -59 15 -51 -4 4 -11 8 -12 13 -4 5
8 9 7 14 -5 12 -32 7 -42 -19 -37 -20 3 -25 0 -25 -17 0 -11 5 -21 10 -21 6 0
10 4 10 8 0 5 7 9 15 9 8 0 15 -4 15 -9 0 -4 -4 -8 -10 -8 -5 0 -10 -6 -10
-14 0 -8 -6 -17 -12 -20 -10 -5 -10 -7 0 -12 6 -3 12 -12 12 -20 0 -9 5 -12
11 -8 12 7 9 -36 -5 -121 -5 -27 -5 -28 3 -5 8 21 9 17 10 -25 1 -28 8 -105
16 -170 8 -66 15 -122 15 -125 0 -15 -22 31 -31 66 l-11 41 -41 -9 c-23 -5
-65 -8 -94 -6 -28 2 -49 0 -47 -4 8 -13 -19 -58 -35 -58 -12 0 -16 9 -15 34 1
19 5 39 8 45 4 5 2 12 -4 16 -6 4 -13 -7 -16 -25 -4 -17 -9 -29 -11 -26 -2 2
-1 20 2 39 5 26 11 34 23 31 10 -2 24 0 32 5 12 8 12 25 3 111 -6 55 -16 107
-23 115 -7 8 -9 27 -4 52 6 29 9 33 14 18 9 -26 23 -3 24 41 1 19 5 34 11 34
5 0 8 -22 8 -48 -1 -26 1 -38 3 -27 3 11 9 35 14 53 6 23 5 36 -6 46 -12 12
-9 17 19 36 26 18 28 21 9 17 -26 -6 -55 30 -58 72 -3 37 -4 38 -14 16 -7 -16
-9 -13 -9 17 -1 31 2 35 19 31 22 -6 26 8 9 39 -7 14 -8 23 0 31 5 5 7 23 4
38 -6 30 5 37 25 17 9 -9 12 -8 12 5 0 10 -8 17 -20 17 -21 0 -27 15 -9 25 6
5 2 13 -11 22 -24 17 -43 60 -34 75 8 13 41 -25 56 -66z"/>
<path d="M1255 2350 c-4 -6 -10 -8 -15 -5 -5 3 -8 -4 -7 -15 1 -23 17 -28 17
-5 0 8 7 15 15 15 11 0 15 -11 15 -38 0 -34 -9 -74 -56 -236 -8 -28 -10 -55
-5 -65 12 -24 -2 -64 -26 -76 -14 -7 -19 -16 -14 -24 5 -7 6 -54 3 -105 -2
-51 -1 -136 3 -188 l7 -95 109 1 109 1 1 25 c2 48 -1 145 -7 182 l-6 37 35
-11 c43 -13 77 7 102 59 18 38 17 68 -9 168 -9 33 -25 104 -37 157 -15 68 -29
105 -45 123 -14 15 -24 38 -24 55 0 27 -2 29 -29 24 -17 -4 -41 0 -59 10 -35
18 -68 21 -77 6z"/>
<path d="M930 2320 c-21 -11 -46 -16 -61 -13 -32 6 -69 -25 -69 -58 0 -12 -11
-58 -24 -103 -13 -44 -29 -108 -35 -141 -6 -33 -20 -72 -31 -87 -11 -15 -20
-39 -20 -53 0 -34 34 -100 62 -119 22 -15 63 -13 83 5 17 17 36 10 26 -8 -20
-40 -71 -179 -71 -194 0 -9 17 -23 42 -32 23 -9 42 -16 44 -14 5 6 35 141 49
222 9 50 22 104 30 120 24 55 24 61 -4 73 -46 21 -50 37 -42 184 9 148 26 203
71 225 22 11 22 13 5 12 -11 0 -36 -8 -55 -19z"/>
<path d="M3808 2009 c-3 -18 -85 -77 -110 -79 -3 0 -10 12 -15 27 l-9 26 -23
-39 c-13 -21 -35 -59 -49 -84 -14 -25 -40 -68 -58 -97 -31 -48 -32 -52 -15
-67 10 -9 25 -16 35 -16 19 0 166 143 166 161 0 7 10 4 25 -5 23 -15 25 -15
25 1 0 15 2 16 10 3 6 -10 10 -11 10 -2 0 6 4 12 10 12 15 0 4 -49 -51 -226
-5 -17 -7 -40 -3 -50 3 -12 3 -14 -3 -8 -8 13 -78 34 -128 40 -16 2 -38 7 -48
10 -18 6 -68 -20 -65 -34 0 -4 -2 -15 -7 -26 -9 -21 -7 -23 86 -72 56 -30 58
-31 35 -42 -21 -9 -23 -8 -19 9 3 10 0 19 -6 19 -5 0 -8 -6 -5 -14 3 -7 -1
-20 -9 -27 -7 -8 -12 -20 -9 -27 2 -7 -5 -12 -17 -12 -14 0 -21 -6 -21 -19 0
-32 23 -121 31 -121 4 0 10 -13 14 -29 5 -24 45 -71 60 -71 11 0 -3 42 -20 62
-15 18 -16 25 -5 41 8 14 9 22 1 27 -19 11 -22 97 -4 104 10 4 12 13 8 27 -5
16 -4 19 5 14 7 -4 16 -1 21 6 8 11 13 10 27 -6 9 -11 28 -25 42 -32 18 -9 20
-12 8 -12 -25 -1 -22 -18 3 -24 15 -4 20 -11 16 -21 -4 -9 -3 -16 1 -16 15 0
30 -59 25 -98 -3 -22 1 -51 8 -63 9 -18 9 -24 0 -27 -9 -3 -8 -11 4 -28 9 -14
15 -33 13 -42 -1 -9 2 -24 7 -32 5 -8 10 -30 12 -49 2 -19 8 -41 14 -47 7 -8
7 -14 -1 -19 -13 -8 -13 -45 0 -45 18 0 11 -20 -7 -21 -11 0 -13 -3 -6 -6 9
-3 10 -10 3 -24 -8 -14 -21 -19 -48 -19 -35 1 -36 2 -18 15 20 15 20 15 0 30
-18 14 -18 16 -1 29 14 10 15 15 5 19 -7 3 -1 6 14 6 15 1 29 5 33 10 3 5 -10
9 -30 8 -19 -1 -35 -5 -35 -9 0 -5 -4 -8 -10 -8 -5 0 -10 11 -10 25 0 15 5 25
13 24 34 -4 45 2 40 21 -10 38 -63 50 -63 14 0 -8 -4 -14 -9 -14 -11 0 10 62
24 72 6 4 2 8 -8 8 -10 0 -16 4 -12 9 3 5 1 12 -5 16 -5 3 -10 24 -10 45 0 21
-4 41 -9 44 -5 3 -8 -2 -7 -12 1 -13 -6 -16 -28 -14 -23 3 -27 0 -20 -10 6 -7
16 -33 23 -58 7 -25 17 -53 22 -62 16 -32 38 -163 45 -267 3 -57 10 -115 15
-127 4 -13 11 -53 15 -89 4 -36 10 -65 14 -65 4 0 7 -6 7 -12 0 -7 4 -68 8
-135 8 -120 19 -161 23 -85 6 93 22 112 97 112 33 0 34 -1 24 -26 -10 -29 -7
-40 10 -29 6 3 11 20 11 36 0 17 5 40 11 51 8 15 8 22 -1 28 -8 5 -3 10 13 14
39 9 58 75 63 209 2 74 0 87 -13 87 -11 0 -8 6 10 20 19 15 26 29 24 49 -1 17
-6 26 -12 23 -26 -16 -37 -8 -12 9 15 12 27 25 27 31 0 5 -12 0 -26 -11 -34
-27 -51 -18 -63 32 l-11 42 4 -50 4 -50 -14 44 c-7 24 -11 48 -7 54 11 17 5
66 -11 88 -8 12 -12 27 -10 34 3 7 0 16 -7 21 -9 5 -10 2 -6 -9 3 -10 2 -17
-3 -17 -6 0 -6 -10 0 -26 13 -33 13 -37 -2 -28 -10 6 -10 5 -1 -7 15 -19 17
-87 4 -163 -18 -110 -29 -85 -34 86 -3 89 -9 178 -13 197 -5 24 -3 32 5 27 6
-4 11 -17 11 -28 0 -12 3 -19 6 -15 3 3 17 2 31 -4 17 -6 22 -6 17 3 -4 6 -8
21 -10 32 -2 12 -7 35 -12 51 -5 17 -8 43 -6 60 2 16 -2 33 -9 37 -9 6 -9 8 1
8 10 0 8 5 -4 17 -16 17 -16 18 7 24 l24 6 -24 10 c-24 10 -24 10 -3 15 26 7
29 28 5 28 -15 0 -16 2 -3 10 13 8 13 11 1 19 -8 5 -11 16 -8 25 4 10 1 16 -8
16 -8 0 -15 -5 -15 -10 0 -7 -6 -7 -19 -1 -10 6 -21 8 -25 6 -3 -3 -4 -2 -1 2
7 8 37 13 107 18 55 4 71 12 64 31 -8 22 39 41 59 24 13 -10 15 -9 15 9 0 11
6 21 13 21 7 0 22 6 32 14 18 13 18 16 5 42 -17 33 -39 53 -54 49 -6 -1 -30
-6 -53 -10 -38 -7 -43 -11 -43 -34 0 -40 -11 -72 -24 -68 -6 2 -9 20 -8 41 2
20 -1 42 -6 49 -11 15 -22 130 -13 144 3 6 19 13 34 17 15 4 25 11 22 16 -3 5
-1 11 4 14 5 3 16 -10 25 -29 9 -19 21 -37 27 -41 6 -3 18 -23 26 -43 15 -34
16 -35 24 -13 5 12 13 22 19 22 13 0 50 60 49 80 0 11 -2 11 -6 2 -6 -16 -43
23 -43 45 0 8 -4 11 -10 8 -5 -3 -10 1 -10 9 0 8 -9 20 -20 26 -11 6 -20 18
-20 26 0 8 -4 12 -10 9 -10 -6 -14 15 -12 70 0 17 -2 22 -4 13 -7 -22 -4 -22
-44 -2 -18 10 -58 20 -89 24 -55 7 -54 15 4 23 21 3 15 4 -17 6 -40 1 -47 -2
-50 -20z"/>
<path d="M828 1415 c-6 -6 10 -161 27 -260 32 -188 37 -220 42 -282 3 -42 1
-63 -6 -63 -22 0 13 -292 44 -364 12 -28 15 -52 10 -83 -5 -33 -2 -51 10 -69
15 -24 15 -28 -21 -91 -29 -52 -34 -67 -23 -74 8 -5 23 -6 34 -3 28 9 66 10
91 1 36 -13 53 28 60 142 4 86 3 101 -12 109 -13 8 -14 13 -4 32 12 23 10 63
-8 200 -20 147 -24 218 -12 240 7 12 11 76 11 156 0 102 5 147 18 187 l18 52
28 -85 c15 -47 33 -98 40 -115 23 -56 38 -130 40 -186 0 -34 7 -66 17 -81 16
-24 16 -36 2 -154 -11 -90 -12 -140 -6 -167 11 -43 5 -77 -16 -93 -11 -8 -14
-23 -10 -59 4 -33 0 -66 -13 -104 -17 -51 -17 -57 -3 -68 9 -6 22 -9 30 -6 8
3 14 0 14 -7 0 -18 92 -3 107 17 8 10 12 51 12 111 0 74 3 96 15 105 17 13 29
168 28 367 -2 394 0 494 9 517 6 17 5 51 -3 104 l-12 79 -40 0 c-68 0 -226
-33 -226 -47 0 -19 -154 -18 -173 2 -8 8 -17 11 -21 8 -3 -4 -6 -2 -6 4 0 5
-6 10 -12 10 -7 1 -27 6 -45 11 -17 6 -33 9 -35 7z"/>
</g>
</svg>
