<?xml version="1.0" standalone="no"?>
<!DOCTYPE svg PUBLIC "-//W3C//DTD SVG 20010904//EN"
 "http://www.w3.org/TR/2001/REC-SVG-20010904/DTD/svg10.dtd">
<svg version="1.0" xmlns="http://www.w3.org/2000/svg"
 width="609.000000pt" height="410.000000pt" viewBox="0 0 609.000000 410.000000"
 preserveAspectRatio="xMidYMid meet">

<g transform="translate(0.000000,410.000000) scale(0.100000,-0.100000)"
fill="#000000" stroke="none">
<path d="M1075 2686 c-48 -13 -70 -28 -117 -81 -32 -36 -36 -45 -29 -75 6 -29
11 -35 31 -35 22 0 25 5 26 38 1 48 17 67 42 49 9 -7 26 -16 37 -21 11 -5 35
-24 54 -41 32 -30 33 -33 16 -42 -10 -6 -45 -8 -79 -5 -34 3 -56 3 -49 1 7 -3
9 -12 6 -20 -6 -17 42 -20 52 -3 5 7 15 5 31 -5 33 -23 53 -20 66 9 22 49 43
25 29 -35 -10 -46 -19 -59 -29 -45 -4 6 -15 16 -24 23 -15 12 -20 12 -34 -2
-11 -12 -25 -15 -49 -10 -41 7 -51 -14 -34 -79 8 -33 8 -50 0 -65 -6 -12 -11
-22 -11 -24 0 -10 129 0 148 11 13 7 30 10 38 7 8 -3 15 0 15 7 5 39 3 103 -2
107 -4 3 1 23 12 44 10 22 17 41 15 44 -3 2 10 16 27 31 l31 28 -16 49 c-8 27
-22 49 -29 49 -8 0 -13 8 -11 19 2 10 -1 16 -5 13 -5 -3 -18 6 -29 20 -15 21
-75 57 -86 52 -2 -1 -21 -7 -43 -13z m-13 -351 c6 -28 -16 -36 -26 -9 -9 24
-7 34 8 34 7 0 16 -11 18 -25z m71 -5 c-3 -11 -9 -20 -14 -20 -11 0 -11 3 -3
24 9 23 23 20 17 -4z m72 -45 c0 -31 -1 -32 -17 -18 -17 15 -15 39 2 28 4 -3
6 5 3 17 -4 14 -2 19 3 15 5 -5 9 -24 9 -42z m-85 -45 c0 -5 -8 -10 -17 -10
-15 0 -16 2 -3 10 19 12 20 12 20 0z"/>
<path d="M4988 2670 c-9 -6 -26 -26 -39 -46 l-22 -36 18 -84 c10 -47 21 -86
25 -89 4 -2 5 6 3 18 -6 31 15 86 27 67 7 -11 12 -11 32 2 13 8 39 19 58 23
19 4 45 13 58 21 25 16 27 12 11 -18 -8 -15 -8 -19 1 -13 19 12 31 56 24 92
-5 26 -15 38 -45 53 -41 21 -122 26 -151 10z"/>
<path d="M3755 2621 c-47 -20 -89 -107 -101 -211 -9 -78 -37 -172 -55 -182 -8
-4 -30 -14 -50 -22 -36 -14 -36 -15 -30 -53 4 -21 15 -52 24 -70 9 -18 17 -41
17 -52 0 -11 5 -23 10 -26 6 -4 7 -13 1 -23 -6 -11 -6 -24 0 -35 6 -9 7 -22 4
-27 -16 -27 17 -5 51 33 21 23 50 47 65 54 15 6 35 26 45 45 9 18 21 36 26 39
5 3 12 35 16 70 7 61 8 64 32 61 14 -2 29 -8 35 -13 5 -5 20 -9 32 -9 13 0 33
-9 45 -20 12 -10 25 -17 30 -14 4 3 8 0 8 -5 0 -6 -7 -11 -15 -11 -8 0 -15 4
-15 9 0 5 -7 11 -15 15 -11 4 -15 -2 -15 -24 0 -20 6 -31 20 -35 12 -4 31 -23
44 -43 13 -21 34 -43 48 -50 13 -8 30 -29 37 -49 13 -34 20 -38 25 -11 15 77
20 94 30 100 8 5 7 8 -2 8 -9 0 -9 8 3 36 23 57 20 83 -12 89 -66 14 -75 25
-99 120 -32 132 -73 232 -107 266 -45 46 -87 58 -132 40z m86 -88 c50 -30 48
-72 -3 -73 -23 0 -23 -29 -2 -37 9 -3 25 -1 34 5 34 21 40 -15 13 -75 -36 -81
-76 -96 -113 -44 l-20 30 35 3 c35 3 49 18 24 27 -7 2 -9 -1 -5 -8 5 -7 -1
-11 -14 -11 -15 0 -20 5 -17 13 4 10 -2 13 -18 9 -20 -3 -25 1 -31 24 -5 18
-3 29 4 32 7 2 10 7 7 12 -3 4 5 6 17 2 21 -5 21 -6 2 -13 -18 -6 -18 -7 -1
-14 12 -5 22 -1 32 11 18 25 10 34 -30 34 -19 0 -37 5 -40 10 -11 18 5 50 33
65 36 19 58 19 93 -2z m-249 -385 c-6 -7 -12 -26 -15 -43 -4 -28 -4 -27 -6 7
-1 31 6 43 28 47 2 1 -1 -5 -7 -11z"/>
<path d="M3843 2371 c1 -12 7 -21 14 -21 17 0 16 15 -1 30 -12 9 -15 8 -13 -9z"/>
<path d="M3798 2313 c6 -2 18 -2 25 0 6 3 1 5 -13 5 -14 0 -19 -2 -12 -5z"/>
<path d="M2415 2546 c-38 -17 -55 -36 -96 -111 -63 -116 -83 -160 -80 -177 1
-10 -2 -18 -7 -18 -5 0 -29 -15 -53 -34 -32 -24 -48 -46 -58 -77 -21 -69 -52
-237 -58 -309 -4 -59 -2 -67 20 -88 23 -22 26 -23 61 -8 19 8 38 11 41 6 3 -5
1 -44 -5 -87 -7 -43 -14 -134 -16 -203 -5 -107 -3 -130 13 -160 28 -54 47 -50
62 13 12 57 32 80 75 91 19 5 26 12 22 21 -4 10 7 18 35 25 22 6 37 15 34 20
-4 6 3 10 13 10 20 0 32 -25 32 -69 0 -14 -5 -21 -12 -19 -7 3 -31 -1 -53 -8
l-40 -13 50 1 c37 2 51 -1 53 -13 2 -11 -6 -14 -39 -11 -29 3 -40 1 -35 -7 4
-6 18 -11 30 -11 20 0 24 -5 24 -37 1 -143 3 -167 11 -154 17 27 23 -27 11
-106 -16 -109 -27 -146 -49 -169 -10 -11 -22 -30 -25 -42 -4 -12 -12 -22 -17
-22 -6 0 -7 -5 -3 -12 4 -7 3 -8 -4 -4 -13 8 -44 -6 -44 -19 0 -4 6 -12 14
-16 7 -5 8 -9 2 -9 -10 0 -20 -47 -28 -134 -1 -16 3 -30 11 -33 10 -4 11 -9 2
-19 -13 -16 -4 -34 19 -34 14 0 14 2 3 9 -11 7 -7 10 14 13 35 4 42 24 55 179
4 59 13 115 18 125 6 11 15 30 21 44 11 27 10 32 13 -78 0 -19 4 -28 8 -22 5
8 10 9 14 2 3 -6 -1 -17 -9 -25 -17 -17 -21 -42 -5 -32 6 3 10 2 10 -4 0 -5
-4 -11 -10 -13 -5 -2 -12 -28 -16 -58 -7 -66 7 -59 18 8 5 32 5 21 2 -32 -3
-43 -8 -93 -11 -110 -6 -27 -4 -29 9 -19 9 8 13 24 10 43 -3 23 0 30 12 30 9
0 16 5 16 11 0 6 -7 8 -17 5 -15 -6 -15 -5 1 13 12 13 18 36 18 68 1 26 6 52
12 56 8 6 7 10 -1 14 -7 2 -13 9 -13 14 0 15 44 10 68 -7 12 -8 22 -12 22 -7
0 4 -22 22 -48 38 -46 29 -70 75 -40 75 8 1 7 6 -5 15 -16 12 -18 22 -12 77 7
63 9 173 5 258 -4 89 0 116 20 138 24 26 15 30 -12 5 -20 -18 -25 -5 -5 16 10
11 9 13 -5 8 -18 -6 -32 30 -22 57 7 18 31 10 37 -12 4 -15 5 -15 6 -1 2 25
42 42 73 30 29 -11 48 -69 48 -149 0 -30 5 -54 14 -61 8 -7 12 -21 9 -31 -3
-11 -3 -20 0 -20 4 0 11 18 17 40 9 32 19 45 47 58 l36 17 -6 75 c-4 41 -17
104 -30 140 -13 36 -27 89 -31 118 -6 48 -5 52 14 52 12 0 28 12 38 29 15 25
17 53 15 221 -1 162 -4 196 -19 218 -9 15 -23 31 -31 35 -19 12 -51 78 -63
132 -15 67 -87 211 -117 235 -29 23 -65 25 -108 6z m22 -48 c-3 -8 -6 -5 -6 6
-1 11 2 17 5 13 3 -3 4 -12 1 -19z m36 -55 c8 -10 17 -29 19 -43 2 -19 -3 -28
-25 -37 -35 -15 -27 -33 14 -33 31 0 38 -24 8 -26 -44 -1 -82 -34 -41 -34 15
-1 15 -2 -2 -15 -20 -15 -20 -15 0 -15 11 0 25 5 32 12 9 9 9 5 0 -15 -18 -39
-62 -37 -83 3 -19 36 -19 41 -1 34 11 -4 13 0 9 15 -3 13 -12 20 -22 19 -13
-2 -17 7 -19 49 -3 45 0 54 25 77 32 30 63 33 86 9z m-13 -283 c0 -5 16 -10
35 -10 25 0 35 -4 35 -16 0 -8 -4 -13 -9 -9 -5 3 -12 1 -16 -5 -3 -6 3 -10 16
-10 21 0 22 -2 16 -80 -4 -51 -2 -89 5 -105 9 -19 7 -29 -6 -50 -16 -24 -22
-26 -62 -20 -72 9 -85 19 -34 26 l45 6 -42 1 c-30 2 -43 6 -43 16 0 11 -10 13
-42 9 -58 -8 -61 -13 -8 -13 51 0 50 -6 -2 -13 -51 -7 -67 13 -64 78 6 102 53
205 80 177 4 -3 4 1 0 11 -5 15 1 17 45 17 28 0 51 -4 51 -10z m-270 -184 c0
-25 -12 -46 -26 -46 -17 0 -18 14 -4 41 12 22 30 25 30 5z m270 -162 c0 -12
16 -42 36 -66 45 -53 95 -160 94 -202 0 -17 2 -46 6 -65 6 -31 5 -33 -17 -25
-13 4 -41 8 -61 9 -21 0 -40 4 -44 8 -4 4 -47 7 -96 7 -48 0 -88 4 -88 9 0 26
21 61 37 62 17 1 17 2 1 6 -22 6 -22 19 1 107 12 44 24 72 35 76 15 5 15 8 2
25 -16 21 -21 55 -8 55 13 -1 42 -27 42 -39 0 -7 8 -11 18 -9 12 2 16 11 14
34 -2 22 1 31 12 31 10 0 16 -9 16 -23z m-188 -175 c-4 -19 -12 -33 -18 -31
-11 4 -8 38 9 77 11 27 12 28 15 9 2 -12 -1 -37 -6 -55z m46 -220 c-6 -16 -12
-29 -13 -27 -6 6 8 58 16 58 4 0 3 -14 -3 -31z"/>
<path d="M2377 2360 c3 -13 14 -20 29 -20 32 0 31 18 -2 30 -33 13 -33 13 -27
-10z"/>
<path d="M2359 2009 c-2 -17 2 -43 6 -47 2 -2 19 0 38 3 41 8 61 45 24 45 -12
0 -32 3 -44 6 -16 4 -23 2 -24 -7z"/>
<path d="M2370 1940 c-50 -11 1 -11 60 -1 41 8 42 8 10 8 -19 0 -51 -3 -70 -7z"/>
<path d="M2423 1913 c9 -2 23 -2 30 0 6 3 -1 5 -18 5 -16 0 -22 -2 -12 -5z"/>
<path d="M2430 1756 c0 -2 7 -7 16 -10 8 -3 12 -2 9 4 -6 10 -25 14 -25 6z"/>
<path d="M5117 2479 c-14 -8 -16 -14 -6 -25 16 -20 36 -17 49 5 5 11 10 22 10
25 0 10 -34 6 -53 -5z"/>
<path d="M5000 2466 c0 -19 47 -33 67 -20 27 17 18 29 -24 32 -33 2 -43 0 -43
-12z"/>
<path d="M5117 2403 c-13 -14 -21 -15 -42 -5 -21 10 -28 9 -43 -6 -9 -9 -24
-17 -32 -17 -41 1 -50 -76 -14 -116 10 -11 14 -25 10 -35 -8 -21 -20 -10 -35
35 -15 44 -14 84 2 100 10 11 8 11 -11 1 -13 -6 -46 -18 -73 -26 -27 -8 -49
-20 -49 -27 0 -28 -26 -67 -51 -76 -43 -15 -61 -70 -71 -216 -11 -174 -4 -236
30 -268 15 -14 36 -27 47 -29 22 -4 22 8 12 -258 -4 -116 -3 -126 16 -141 34
-28 49 -166 52 -489 2 -257 4 -289 21 -325 16 -33 19 -63 19 -180 l0 -140 31
-3 c18 -2 47 1 65 6 29 7 34 13 33 38 -1 16 -3 63 -5 104 -1 41 -5 80 -8 85
-6 10 -11 50 -10 83 1 105 1 144 -3 248 -3 106 -1 124 15 142 15 16 19 43 23
153 2 74 7 143 10 153 14 45 35 -47 54 -239 13 -129 13 -182 0 -280 -6 -44
-13 -146 -16 -226 l-6 -146 36 -38 c20 -21 36 -42 36 -46 0 -22 48 -39 93 -33
53 8 57 18 23 55 -55 60 -85 185 -56 239 23 43 51 253 49 369 -1 77 4 143 15
194 9 43 16 93 16 110 0 18 2 61 4 97 3 36 5 73 5 82 1 11 13 19 34 23 l34 7
-14 81 c-8 45 -18 109 -23 142 -5 33 -16 84 -25 113 -9 30 -14 56 -12 59 3 2
19 -3 35 -11 38 -20 51 -15 81 29 26 39 27 28 -7 265 -25 175 -36 195 -124
225 -39 14 -48 21 -48 41 0 24 -41 54 -75 54 -8 0 -15 8 -15 18 0 32 -14 43
-33 25z m15 -79 c-9 -19 -19 -24 -47 -24 -29 0 -37 5 -45 26 -13 33 -13 34 5
28 8 -4 15 -1 15 4 0 16 53 19 69 4 11 -10 11 -19 3 -38z m-100 -58 c10 -25
14 -28 45 -23 24 4 36 2 40 -9 3 -7 14 -14 24 -14 10 0 16 5 14 13 -6 16 12
44 22 34 4 -5 0 -22 -9 -38 -14 -24 -15 -34 -6 -48 10 -16 14 -17 25 -6 7 8
10 21 7 29 -3 9 -1 16 5 16 6 0 11 -9 11 -19 0 -11 7 -27 16 -35 14 -15 10
-16 -40 -16 -58 0 -60 -1 -70 -41 -5 -21 -2 -28 14 -32 11 -3 22 -1 25 4 3 4
12 6 20 2 25 -9 65 6 65 25 1 13 4 11 15 -8 8 -14 14 -50 15 -81 0 -44 -4 -60
-20 -74 -16 -14 -23 -16 -32 -7 -19 19 -59 15 -51 -4 4 -11 8 -12 13 -4 5 8 9
7 14 -5 12 -32 7 -42 -19 -37 -20 3 -25 0 -25 -17 0 -11 5 -21 10 -21 6 0 10
4 10 8 0 5 7 9 15 9 8 0 15 -4 15 -9 0 -4 -4 -8 -10 -8 -5 0 -10 -6 -10 -14 0
-8 -6 -17 -12 -20 -10 -5 -10 -7 0 -12 6 -3 12 -12 12 -20 0 -9 5 -12 11 -8
12 7 9 -36 -5 -121 -5 -27 -5 -28 3 -5 8 21 9 17 10 -25 1 -28 8 -105 16 -170
8 -66 15 -122 15 -125 0 -15 -22 31 -31 66 l-11 41 -41 -9 c-23 -5 -65 -8 -94
-6 -28 2 -49 0 -47 -4 8 -13 -19 -58 -35 -58 -12 0 -16 9 -15 34 1 19 5 39 8
45 4 5 2 12 -4 16 -6 4 -13 -7 -16 -25 -4 -17 -9 -29 -11 -26 -2 2 -1 20 2 39
5 26 11 34 23 31 10 -2 24 0 32 5 12 8 12 25 3 111 -6 55 -16 107 -23 115 -7
8 -9 27 -4 52 6 29 9 33 14 18 9 -26 23 -3 24 41 1 19 5 34 11 34 5 0 8 -22 8
-48 -1 -26 1 -38 3 -27 3 11 9 35 14 53 6 23 5 36 -6 46 -12 12 -9 17 19 36
26 18 28 21 9 17 -26 -6 -55 30 -58 72 -3 37 -4 38 -14 16 -7 -16 -9 -13 -9
17 -1 31 2 35 19 31 22 -6 26 8 9 39 -7 14 -8 23 0 31 5 5 7 23 4 38 -6 30 5
37 25 17 9 -9 12 -8 12 5 0 10 -8 17 -20 17 -21 0 -27 15 -9 25 6 5 2 13 -11
22 -24 17 -43 60 -34 75 8 13 41 -25 56 -66z m132 48 c3 -8 2 -12 -4 -9 -6 3
-10 10 -10 16 0 14 7 11 14 -7z m-33 -41 c-8 -15 -10 -15 -11 -2 0 17 10 32
18 25 2 -3 -1 -13 -7 -23z m-172 -180 c-1 -91 -3 -106 -9 -68 -6 47 -2 185 6
185 2 0 3 -53 3 -117z m33 52 c0 -20 -3 -39 -6 -42 -3 -4 -6 15 -6 42 0 27 3
46 6 42 3 -3 6 -22 6 -42z m298 -199 c0 -2 -7 -9 -15 -16 -13 -11 -14 -10 -9
4 5 14 24 23 24 12z m-333 -418 c-3 -8 -6 -5 -6 6 -1 11 2 17 5 13 3 -3 4 -12
1 -19z m323 -378 c0 -5 -4 -10 -10 -10 -5 0 -10 5 -10 10 0 6 5 10 10 10 6 0
10 -4 10 -10z"/>
<path d="M5064 2339 c-9 -15 12 -33 30 -26 9 4 16 13 16 22 0 17 -35 21 -46 4z"/>
<path d="M5135 2053 c-11 -2 -30 -6 -42 -9 -38 -8 -26 -24 17 -22 28 1 40 6
40 16 0 14 11 14 70 -4 22 -7 24 -6 11 9 -13 16 -50 20 -96 10z"/>
<path d="M5111 2000 c-9 -5 -4 -9 13 -12 14 -3 26 -2 26 2 0 12 -26 19 -39 10z"/>
<path d="M5217 1999 c7 -7 15 -10 18 -7 3 3 -2 9 -12 12 -14 6 -15 5 -6 -5z"/>
<path d="M5190 1970 c0 -5 10 -10 23 -10 18 0 19 2 7 10 -19 13 -30 13 -30 0z"/>
<path d="M5116 1954 c-4 -10 -1 -14 6 -12 15 5 23 28 10 28 -5 0 -13 -7 -16
-16z"/>
<path d="M4970 1729 c0 -11 4 -18 10 -14 5 3 7 12 3 20 -7 21 -13 19 -13 -6z"/>
<path d="M5016 1643 c-6 -14 -5 -15 5 -6 7 7 10 15 7 18 -3 3 -9 -2 -12 -12z"/>
<path d="M5193 1505 c0 -22 2 -30 4 -17 2 12 2 30 0 40 -3 9 -5 -1 -4 -23z"/>
<path d="M5201 1434 c0 -11 3 -14 6 -6 3 7 2 16 -1 19 -3 4 -6 -2 -5 -13z"/>
<path d="M1260 2351 c-8 -6 -17 -8 -21 -5 -4 2 -7 -5 -6 -16 1 -23 17 -28 17
-5 0 8 7 15 15 15 11 0 15 -11 15 -38 0 -34 -9 -74 -56 -236 -8 -28 -10 -55
-5 -65 12 -24 -2 -64 -26 -76 -14 -7 -19 -16 -14 -24 5 -7 6 -54 3 -105 -2
-51 -1 -136 3 -189 l7 -96 101 6 c56 3 104 7 106 9 7 6 6 98 -3 171 l-8 71 36
-8 c50 -11 72 -3 96 35 24 38 25 78 6 148 -8 29 -24 99 -36 157 -25 113 -33
135 -61 163 -11 10 -19 29 -19 42 0 22 -3 24 -28 19 -19 -4 -40 1 -63 15 -39
24 -39 24 -59 12z m91 -236 c-1 -49 -5 -106 -9 -125 -6 -23 -8 15 -8 112 1 88
4 138 9 125 5 -12 8 -62 8 -112z m-79 -122 c10 -9 18 -23 18 -32 -1 -25 -38
-101 -50 -101 -7 0 -5 9 4 22 24 33 19 45 -5 14 -11 -14 -25 -26 -30 -26 -5 0
0 9 11 20 23 23 34 61 28 95 -6 29 -1 31 24 8z m108 -43 c0 -5 -4 -10 -10 -10
-5 0 -10 5 -10 10 0 6 5 10 10 10 6 0 10 -4 10 -10z"/>
<path d="M1262 1960 c0 -19 2 -27 5 -17 2 9 2 25 0 35 -3 9 -5 1 -5 -18z"/>
<path d="M926 2315 c-15 -8 -43 -15 -61 -15 -18 0 -37 -6 -42 -12 -14 -19 -34
-103 -24 -106 4 -1 5 -17 2 -35 -4 -31 -5 -31 -11 -7 -5 20 -9 13 -23 -42 -9
-37 -17 -77 -17 -89 0 -11 -11 -43 -25 -71 -36 -71 -30 -120 19 -175 23 -27
46 -29 87 -8 35 18 53 12 39 -13 -13 -22 -80 -192 -80 -202 0 -7 81 -42 86
-37 5 6 35 141 49 222 9 50 22 104 30 120 23 52 25 65 11 65 -7 0 -25 12 -39
26 -25 25 -25 27 -21 137 6 133 19 198 46 232 22 29 15 31 -26 10z m-79 -47
c-3 -8 -6 -5 -6 6 -1 11 2 17 5 13 3 -3 4 -12 1 -19z m-47 -199 c0 -5 -4 -9
-10 -9 -5 0 -10 7 -10 16 0 8 5 12 10 9 6 -3 10 -10 10 -16z m83 -78 c-3 -10
3 -34 13 -52 10 -19 17 -38 16 -43 -2 -5 4 -6 12 -3 9 4 18 2 21 -3 4 -6 -1
-10 -10 -10 -22 0 -55 18 -55 31 0 6 5 7 12 3 7 -4 8 -3 4 5 -4 6 -12 9 -17 6
-15 -10 -30 44 -19 66 14 24 30 25 23 0z"/>
<path d="M985 2310 c3 -5 8 -10 11 -10 2 0 4 5 4 10 0 6 -5 10 -11 10 -5 0 -7
-4 -4 -10z"/>
<path d="M3814 2105 c-18 -14 -18 -14 9 -15 17 0 27 5 27 15 0 19 -11 19 -36
0z"/>
<path d="M3868 2093 c6 -2 18 -2 25 0 6 3 1 5 -13 5 -14 0 -19 -2 -12 -5z"/>
<path d="M3828 2063 c12 -2 30 -2 40 0 9 3 -1 5 -23 4 -22 0 -30 -2 -17 -4z"/>
<path d="M1028 2053 c12 -2 30 -2 40 0 9 3 -1 5 -23 4 -22 0 -30 -2 -17 -4z"/>
<path d="M1006 2023 l-29 -5 29 -19 c20 -13 45 -18 79 -18 l50 1 -53 8 c-72
11 -77 20 -11 21 46 1 49 3 24 9 -34 9 -47 9 -89 3z"/>
<path d="M3808 2009 c-3 -18 -85 -77 -110 -79 -3 0 -10 12 -15 27 l-9 26 -23
-39 c-13 -21 -33 -55 -43 -74 -11 -19 -35 -60 -54 -91 -19 -31 -34 -61 -34
-67 0 -12 31 -32 50 -32 14 0 160 147 160 161 0 7 10 4 25 -5 23 -15 25 -15
25 1 0 15 2 16 10 3 6 -10 10 -11 10 -2 0 6 4 12 10 12 15 0 4 -49 -51 -226
-5 -17 -7 -40 -3 -50 3 -12 3 -14 -3 -8 -8 13 -78 34 -128 40 -16 2 -37 7 -47
10 -21 6 -58 -16 -58 -36 0 -9 -5 -21 -12 -28 -8 -8 -5 -14 15 -23 15 -7 27
-16 27 -20 0 -4 23 -18 50 -31 50 -24 50 -25 27 -35 -22 -10 -24 -9 -20 8 3
10 0 19 -6 19 -5 0 -8 -6 -5 -14 3 -7 -1 -20 -9 -27 -7 -8 -12 -20 -9 -27 2
-6 -3 -12 -12 -12 -12 0 -16 -10 -16 -34 0 -19 5 -38 10 -41 6 -4 8 -10 5 -15
-8 -12 42 -120 55 -120 5 0 10 -7 10 -15 0 -8 4 -15 10 -15 15 0 6 38 -15 62
-15 18 -16 25 -5 41 8 14 9 22 1 27 -19 11 -22 97 -4 104 10 4 12 13 8 27 -5
16 -4 19 5 14 7 -4 16 -1 21 6 8 11 13 10 27 -6 9 -11 28 -25 42 -32 18 -9 20
-12 8 -12 -25 -1 -22 -18 3 -24 15 -4 20 -11 16 -21 -4 -9 -3 -16 1 -16 15 0
30 -59 25 -98 -3 -22 1 -51 8 -63 9 -18 9 -24 0 -27 -9 -3 -8 -11 4 -28 9 -14
15 -33 13 -42 -1 -9 2 -24 7 -32 5 -8 10 -30 12 -49 2 -19 8 -41 14 -47 7 -8
7 -14 -1 -19 -13 -8 -13 -45 0 -45 18 0 11 -20 -7 -21 -11 0 -13 -3 -6 -6 9
-3 10 -10 3 -24 -8 -14 -21 -19 -48 -19 -35 1 -36 2 -18 15 20 15 20 15 0 30
-18 14 -18 16 -1 29 14 10 15 15 5 19 -7 3 -1 6 14 6 15 1 29 5 33 10 3 5 -10
9 -30 8 -19 -1 -35 -5 -35 -9 0 -5 -4 -8 -10 -8 -5 0 -10 11 -10 25 0 15 5 25
13 24 34 -4 45 2 40 21 -10 38 -63 50 -63 15 0 -7 -5 -15 -12 -17 -9 -3 -8
-16 1 -53 7 -27 14 -85 17 -129 6 -88 27 -228 49 -316 15 -60 28 -144 27 -173
0 -9 3 -15 9 -12 5 4 9 13 9 21 0 17 40 34 81 34 20 0 29 4 27 12 -5 14 3 26
43 66 40 41 48 62 58 158 12 127 12 134 -6 134 -11 0 -8 6 10 20 19 15 26 29
24 49 -1 17 -6 26 -12 23 -26 -16 -37 -8 -12 9 15 12 27 25 27 31 0 5 -12 0
-26 -11 -34 -27 -51 -18 -63 32 l-11 42 4 -50 4 -50 -14 44 c-7 24 -11 48 -7
54 11 17 5 66 -11 88 -8 12 -12 27 -10 34 3 7 1 16 -5 19 -9 6 -6 -129 3 -159
6 -18 -20 -155 -31 -166 -7 -7 -12 38 -17 138 -3 81 -9 178 -12 216 -5 58 -4
67 10 67 10 0 16 -9 17 -22 3 -46 4 -51 27 -59 16 -6 21 -5 16 3 -4 6 -8 21
-10 32 -2 12 -7 35 -12 51 -5 17 -8 43 -6 60 2 16 -2 33 -9 37 -9 6 -9 8 1 8
10 0 8 5 -4 17 -16 17 -16 18 7 24 l24 6 -24 10 c-24 10 -24 10 -3 15 26 7 29
28 5 28 -15 0 -16 2 -3 10 13 8 13 11 1 19 -8 5 -11 16 -8 25 4 10 1 16 -8 16
-8 0 -15 -5 -15 -10 0 -7 -6 -7 -19 -1 -10 6 -21 8 -25 6 -3 -3 -4 -2 -1 2 7
8 37 13 107 18 55 4 71 12 64 31 -6 16 26 36 52 32 9 -2 16 2 15 8 -1 7 11 17
27 24 17 7 30 18 30 24 0 17 -43 72 -55 70 -78 -10 -95 -17 -95 -43 0 -40 -11
-72 -24 -68 -6 2 -9 20 -8 41 2 20 -1 42 -6 49 -11 15 -22 130 -13 144 3 6 19
13 34 17 15 4 25 11 22 16 -3 5 -1 11 3 14 5 3 15 -7 23 -22 7 -15 24 -40 36
-55 13 -16 23 -35 23 -42 0 -16 41 21 65 59 14 21 13 25 -5 46 -11 13 -20 29
-20 37 0 8 -4 11 -10 8 -5 -3 -10 1 -10 9 0 8 -9 20 -20 26 -11 6 -20 18 -20
26 0 8 -4 12 -10 9 -10 -6 -14 15 -12 70 0 17 -2 22 -4 13 -7 -22 -4 -22 -44
-2 -18 10 -58 20 -89 24 -55 7 -54 15 4 23 21 3 15 4 -17 6 -40 1 -47 -2 -50
-20z m242 -171 c0 -4 -4 -8 -9 -8 -6 0 -12 4 -15 8 -3 5 1 9 9 9 8 0 15 -4 15
-9z m-212 -199 l4 -86 -28 -8 c-20 -6 -24 -9 -13 -12 16 -4 22 -53 7 -53 -4 0
-5 -8 -2 -17 5 -14 4 -15 -4 -4 -5 7 -7 23 -5 35 4 18 3 19 -7 6 -10 -13 -11
-13 -6 2 3 10 -1 33 -9 52 -16 39 -20 59 -6 38 5 -8 10 11 14 51 3 35 12 76
18 91 12 25 14 25 23 9 5 -10 12 -57 14 -104z m19 -441 c-3 -8 -6 -5 -6 6 -1
11 2 17 5 13 3 -3 4 -12 1 -19z m-35 -435 c2 -10 -3 -23 -12 -30 -13 -11 -12
-12 8 -13 22 0 23 -3 20 -60 -3 -54 -5 -60 -24 -60 -25 0 -39 15 -47 50 -3 14
-9 39 -15 55 -14 45 1 75 37 75 20 0 31 -6 33 -17z"/>
<path d="M958 1983 c6 -2 18 -2 25 0 6 3 1 5 -13 5 -14 0 -19 -2 -12 -5z"/>
<path d="M944 1942 c23 -26 51 -29 60 -6 5 13 15 15 49 11 23 -3 51 -2 62 3
14 6 -2 9 -53 9 -43 1 -71 -3 -67 -8 11 -19 -17 -22 -43 -5 l-27 17 19 -21z"/>
<path d="M1145 1930 c-3 -5 -1 -10 4 -10 6 0 11 5 11 10 0 6 -2 10 -4 10 -3 0
-8 -4 -11 -10z"/>
<path d="M4080 1926 c0 -8 7 -22 16 -30 23 -23 30 -19 8 5 -16 17 -16 22 -4
29 13 8 12 10 -2 10 -10 0 -18 -6 -18 -14z"/>
<path d="M3500 1835 c-11 -13 -10 -14 4 -9 9 3 16 10 16 15 0 13 -6 11 -20 -6z"/>
<path d="M3490 1780 c0 -5 5 -10 10 -10 6 0 10 5 10 10 0 6 -4 10 -10 10 -5 0
-10 -4 -10 -10z"/>
<path d="M3497 1749 c7 -7 15 -10 18 -7 3 3 -2 9 -12 12 -14 6 -15 5 -6 -5z"/>
<path d="M3938 1745 c-10 -11 3 -35 18 -35 8 0 14 7 14 16 0 8 -4 13 -9 10 -5
-4 -11 -1 -13 5 -2 5 -6 7 -10 4z"/>
<path d="M830 1490 c20 -13 33 -13 25 0 -3 6 -14 10 -23 10 -15 0 -15 -2 -2
-10z"/>
<path d="M1205 1490 c-12 -5 11 -6 55 -3 41 3 77 7 79 9 9 8 -115 2 -134 -6z"/>
<path d="M780 1466 c0 -16 21 -26 55 -26 34 0 39 15 9 29 -34 15 -64 14 -64
-3z"/>
<path d="M1265 1473 c-63 -4 -79 -11 -67 -29 5 -8 23 -9 57 -3 28 4 72 8 98 8
34 1 47 5 45 14 -5 13 -40 16 -133 10z"/>
<path d="M4006 1455 c2 -14 0 -25 -6 -25 -5 0 -10 -4 -10 -10 0 -5 7 -7 15 -4
10 4 15 0 15 -11 0 -11 5 -15 15 -11 8 3 15 1 15 -4 0 -6 7 -10 17 -10 14 0
14 2 -2 20 -10 11 -21 17 -25 15 -4 -3 -10 2 -13 10 -4 9 -1 12 9 8 22 -8 16
10 -11 29 -23 18 -24 18 -19 -7z"/>
<path d="M3555 1460 c3 -5 8 -10 11 -10 2 0 4 5 4 10 0 6 -5 10 -11 10 -5 0
-7 -4 -4 -10z"/>
<path d="M1203 1402 c-53 -10 -83 -21 -83 -29 0 -19 -154 -18 -173 2 -8 8 -17
11 -21 8 -3 -4 -6 -2 -6 4 0 5 -6 10 -12 11 -7 1 -28 4 -45 8 l-33 6 6 -63 c8
-97 47 -344 64 -410 13 -48 13 -126 0 -134 -5 -3 -10 -23 -10 -44 0 -69 30
-255 50 -309 11 -29 19 -72 19 -96 -1 -23 3 -51 9 -61 8 -15 4 -31 -19 -78
-16 -32 -27 -62 -24 -67 7 -11 125 -1 141 11 6 5 14 51 18 101 6 79 5 94 -9
104 -13 10 -14 17 -6 33 13 24 14 89 2 162 -10 54 -25 210 -23 239 0 8 5 60
10 115 5 55 8 126 7 159 -2 55 22 176 36 176 9 0 27 -43 63 -150 46 -135 58
-187 60 -251 1 -37 7 -63 17 -75 15 -17 15 -28 2 -124 -9 -66 -12 -137 -8
-191 5 -71 4 -88 -10 -99 -10 -8 -15 -28 -14 -59 1 -25 -4 -66 -10 -91 -6 -25
-11 -50 -11 -56 0 -15 69 -24 112 -15 l33 7 1 102 c1 83 4 105 18 115 23 17
44 337 30 468 -7 61 -7 149 -2 249 13 212 13 238 4 293 l-7 47 -47 -1 c-26 -1
-84 -8 -129 -17z"/>
<path d="M978 1383 c6 -2 18 -2 25 0 6 3 1 5 -13 5 -14 0 -19 -2 -12 -5z"/>
<path d="M1040 1378 c0 -4 11 -8 25 -8 14 0 25 4 25 8 0 4 -11 8 -25 8 -14 0
-25 -4 -25 -8z"/>
<path d="M4047 1350 c14 -30 33 -32 33 -5 0 12 -28 35 -44 35 -2 0 2 -14 11
-30z"/>
<path d="M2385 1290 c4 -6 11 -8 16 -5 14 9 11 15 -7 15 -8 0 -12 -5 -9 -10z"/>
<path d="M3674 1152 c1 -12 -5 -16 -21 -15 l-22 3 25 -73 c31 -87 41 -99 50
-61 4 16 12 32 18 36 7 5 4 8 -7 8 -10 0 -16 4 -12 9 3 5 1 12 -5 16 -5 3 -10
24 -10 45 0 21 -4 41 -9 44 -5 3 -8 -2 -7 -12z"/>
<path d="M2278 823 c6 -2 18 -2 25 0 6 3 1 5 -13 5 -14 0 -19 -2 -12 -5z"/>
<path d="M2548 803 c6 -2 18 -2 25 0 6 3 1 5 -13 5 -14 0 -19 -2 -12 -5z"/>
<path d="M2288 793 c7 -3 16 -2 19 1 4 3 -2 6 -13 5 -11 0 -14 -3 -6 -6z"/>
<path d="M2432 540 c0 -19 2 -27 5 -17 2 9 2 25 0 35 -3 9 -5 1 -5 -18z"/>
<path d="M2348 500 c-15 -11 -35 -20 -47 -20 -18 0 -20 -6 -19 -63 0 -40 -5
-74 -16 -94 -22 -44 -21 -115 2 -136 24 -22 66 -22 83 -1 8 9 19 49 24 88 l10
71 12 -70 c7 -38 15 -86 18 -106 5 -33 9 -37 43 -42 38 -7 82 0 82 12 0 3 -5
22 -10 41 -6 19 -11 83 -11 141 l0 107 -30 6 c-16 3 -37 3 -46 -1 -12 -4 -9 1
7 15 21 19 22 21 5 16 -11 -4 -26 -14 -32 -22 -17 -20 -22 -14 -25 33 -4 46
-16 52 -50 25z"/>
</g>
</svg>
